# File created by Blade
# Date/Time:  Wed Jan 21 14:28:11 2015
# Frame Rate: 120.000 fps
#------------------------------------------------------
:FULLY-SPECIFIED
:DEGREES
683
root 18.765344 35.448997 -21.599625 -170.575716 -3.539068 -178.817421
Spine -18.711207 -1.128319 1.443241
Head 7.572567 -1.726411 -0.341802
LeftShoulder -11.911065 -37.306690 23.516146
LeftArm 5.174316 8.679845 -5.223274
LeftForeArm 19.136425 -0.000000 -2.106964
LeftHand -7.928222 -0.000000 -8.124216
LeftHandThumb1 -26.253704 0.000000 33.147579
RightShoulder -12.130914 1.231134 -13.643475
RightArm 9.282932 34.673584 6.029059
RightForeArm -42.423340 -0.000000 4.560649
RightHand -7.102370 0.000000 14.531428
RightHandThumb1 -24.326973 -0.000000 -32.862282
LeftUpLeg -0.484394 8.453432 2.047499
LeftLeg -7.284848 -0.000000 0.000000
LeftFoot -19.962703 27.078048 -12.117139
LeftToeBase 27.234663 -0.000000 -0.000000
RightUpLeg -1.628374 -12.980800 0.101314
RightLeg -4.320375 -0.000000 0.000000
RightFoot -20.277036 -22.383744 16.492864
RightToeBase 25.116066 -0.000000 -0.000000
684
root 18.765180 35.448748 -21.598816 -170.573328 -3.530793 -178.816286
Spine -18.706422 -1.108866 1.437388
Head 7.562954 -1.733133 -0.333929
LeftShoulder -11.900452 -37.315752 23.514504
LeftArm 5.158589 8.686602 -5.233333
LeftForeArm 19.126037 0.000000 -2.097753
LeftHand -7.940012 0.000000 -8.105637
LeftHandThumb1 -26.253704 0.000000 33.147579
RightShoulder -12.150583 1.194523 -13.632162
RightArm 9.288570 34.703609 6.025460
RightForeArm -42.395922 -0.000000 4.549911
RightHand -7.053929 -0.000000 14.466440
RightHandThumb1 -24.326973 -0.000000 -32.862282
LeftUpLeg -0.488859 8.471169 2.046007
LeftLeg -7.283443 -0.000000 0.000000
LeftFoot -19.964458 27.079147 -12.101912
LeftToeBase 27.278008 -0.000000 -0.000000
RightUpLeg -1.636525 -12.986888 0.102573
RightLeg -4.315105 -0.000000 0.000000
RightFoot -20.269506 -22.378287 16.396488
RightToeBase 25.216104 -0.000000 -0.000000
685
root 18.764745 35.449055 -21.598807 -170.572727 -3.532263 -178.815100
Spine -18.704130 -1.100891 1.442596
Head 7.564477 -1.712648 -0.348913
LeftShoulder -11.897631 -37.297046 23.490994
LeftArm 5.164879 8.692823 -5.227241
LeftForeArm 19.117737 0.000000 -2.088419
LeftHand -7.943647 -0.000000 -8.111405
LeftHandThumb1 -26.253704 0.000000 33.147579
RightShoulder -12.156427 1.207230 -13.642500
RightArm 9.276670 34.674131 6.015838
RightForeArm -42.349031 -0.000000 4.514105
RightHand -7.119235 -0.000000 14.478561
RightHandThumb1 -24.326973 -0.000000 -32.862282
LeftUpLeg -0.488107 8.456346 2.047307
LeftLeg -7.285839 -0.000000 0.000000
LeftFoot -19.972070 27.087251 -12.126729
LeftToeBase 27.259764 -0.000000 -0.000000
RightUpLeg -1.636718 -12.977011 0.102784
RightLeg -4.313213 -0.000000 0.000000
RightFoot -20.278422 -22.377829 16.486326
RightToeBase 25.154334 -0.000000 -0.000000
686
root 18.765108 35.448775 -21.597985 -170.564598 -3.525121 -178.812189
Spine -18.702662 -1.091391 1.434135
Head 7.541696 -1.697494 -0.311583
LeftShoulder -11.914618 -37.285761 23.512864
LeftArm 5.166671 8.691644 -5.245585
LeftForeArm 19.111146 0.000000 -2.084856
LeftHand -7.950546 -0.000000 -8.099827
LeftHandThumb1 -26.253704 0.000000 33.147579
RightShoulder -12.178685 1.174482 -13.617828
RightArm 9.298958 34.728080 6.016766
RightForeArm -42.323716 -0.000000 4.514170
RightHand -6.965530 0.000000 14.443475
RightHandThumb1 -24.326973 -0.000000 -32.862282
LeftUpLeg -0.499434 8.459708 2.054930
LeftLeg -7.265728 -0.000000 0.000000
LeftFoot -19.946265 27.053129 -12.057800
LeftToeBase 27.210854 -0.000000 -0.000000
RightUpLeg -1.650099 -12.977014 0.108369
RightLeg -4.308552 -0.000000 0.000000
RightFoot -20.265410 -22.376543 16.468675
RightToeBase 25.132760 -0.000000 -0.000000
687
root 18.764844 35.448732 -21.597135 -170.560364 -3.521035 -178.810939
Spine -18.698209 -1.078506 1.429588
Head 7.525115 -1.699705 -0.298264
LeftShoulder -11.910129 -37.299693 23.511705
LeftArm 5.155777 8.706875 -5.249754
LeftForeArm 19.135846 -0.000000 -2.079543
LeftHand -7.956079 -0.000000 -8.087788
LeftHandThumb1 -26.253704 0.000000 33.147579
RightShoulder -12.183440 1.181445 -13.617039
RightArm 9.277328 34.730872 6.014392
RightForeArm -42.372680 -0.000000 4.566100
RightHand -7.103945 -0.000000 14.407240
RightHandThumb1 -24.326973 -0.000000 -32.862282
LeftUpLeg -0.506367 8.467634 2.054902
LeftLeg -7.262547 -0.000000 0.000000
LeftFoot -19.941507 27.057786 -12.039045
LeftToeBase 27.203266 -0.000000 -0.000000
RightUpLeg -1.657422 -12.982973 0.109714
RightLeg -4.309581 -0.000000 0.000000
RightFoot -20.268301 -22.377967 16.380408
RightToeBase 25.282538 -0.000000 -0.000000
